<svg xmlns="http://www.w3.org/2000/svg" xmlns:xlink="http://www.w3.org/1999/xlink" viewBox="0 0 85 85" fill="#fff" fill-rule="evenodd" stroke="#000" stroke-linecap="round" stroke-linejoin="round"><use xlink:href="#A" x="2.5" y="2.5"/><symbol id="A" overflow="visible"><g stroke="none"><path d="M79.85 45.741L66.502 1.144c-.456-1.525-2.443-1.525-2.899 0L54.73 30.786H25.27L16.398 1.144c-.457-1.525-2.443-1.525-2.899 0L.15 45.741c-.408 1.365.039 2.858 1.108 3.703l38.743 30.555 38.741-30.555c1.069-.845 1.515-2.338 1.108-3.703" fill="#fc6d26"/><path d="M40 80h0L54.73 30.785H25.271L40 80z" fill="#e24329"/><path d="M40 80L25.269 30.787H4.626L40 80z" fill="#fc6d26"/><path d="M4.626 30.786h0L.149 45.741c-.408 1.365.039 2.86 1.109 3.703L40 79.999 4.626 30.786z" fill="#fca326"/><path d="M4.626 30.786h20.643L16.397 1.144c-.457-1.525-2.443-1.525-2.899 0L4.626 30.786z" fill="#e24329"/><path d="M40 80l14.729-49.213h20.645L40 80z" fill="#fc6d26"/><path d="M75.374 30.786h0l4.477 14.955c.408 1.365-.039 2.86-1.109 3.703L40 79.999l35.374-49.213z" fill="#fca326"/><path d="M75.373 30.786H54.73l8.872-29.642c.456-1.525 2.443-1.525 2.899 0l8.872 29.642z" fill="#e24329"/></g></symbol></svg>